<?xml version="1.0" encoding="utf-8"?>
<!-- Generator: Adobe Illustrator 25.2.1, SVG Export Plug-In . SVG Version: 6.00 Build 0)  -->
<svg version="1.1" id="Capa_1" xmlns="http://www.w3.org/2000/svg" xmlns:xlink="http://www.w3.org/1999/xlink" x="0px" y="0px"
	 viewBox="0 0 60 60" style="enable-background:new 0 0 60 60;" xml:space="preserve">
<style type="text/css">
	.st0{fill:none;}
	.st1{fill:#868686;}
	.st2{fill:#FFFFFF;}
</style>
<g>
	<g>
		<path class="st0" d="M19.3,42.6c1.2,1,2,2.4,2.4,4C21.3,45,20.5,43.6,19.3,42.6z"/>
		<path class="st0" d="M35.8,47.7c0,0.2,0.2,0.4,0.4,0.4s0.4-0.2,0.4-0.4V31.5l-0.8-0.9V47.7z"/>
		<path class="st0" d="M19.1,42.4c-0.1-0.1-0.2-0.2-0.3-0.2C18.9,42.2,19,42.3,19.1,42.4z"/>
		<path class="st0" d="M31.3,47.7c0,0.2,0.2,0.4,0.4,0.4s0.4-0.2,0.4-0.4V34.4l-0.8,0.9V47.7z"/>
		<path class="st0" d="M21.8,47.3c0-0.1,0-0.3-0.1-0.4C21.8,47.1,21.8,47.2,21.8,47.3z"/>
		<path class="st0" d="M21.5,50.4c0.2-0.6,0.4-1.4,0.4-2.2C21.9,48.9,21.7,49.7,21.5,50.4z"/>
		<path class="st0" d="M22,35.1v12.6c0,0.2,0.2,0.4,0.4,0.4s0.4-0.2,0.4-0.4V34.9l-0.5,0.4L22,35.1z"/>
		<path class="st0" d="M26.8,47.7c0,0.2,0.2,0.4,0.4,0.4s0.4-0.2,0.4-0.4V31.9l-0.8-0.8V47.7z"/>
		<path class="st1" d="M44.4,41.4c-3.8,0-6.8,3-6.7,6.8c0,0.7,0.1,1.3,0.4,2l0.3,1h-1.1H21.6h-1l0.3-1c0.2-0.7,0.3-1.3,0.3-2
			c0-3.8-3-6.8-6.8-6.8s-6.8,3-6.8,6.8s3,6.8,6.8,6.8h30c3.8,0,6.8-3,6.8-6.8S48.2,41.4,44.4,41.4z"/>
		<path class="st2" d="M44.4,40.7c-4.1,0-7.5,3.4-7.5,7.5c0,0.8,0.2,1.6,0.4,2.2h-0.1H21.5c0.2-0.7,0.4-1.5,0.4-2.2
			c0-0.3,0-0.6-0.1-0.9c0-0.1,0-0.3-0.1-0.4c0-0.1-0.1-0.3-0.1-0.4c-0.4-1.6-1.2-2.9-2.4-4c-0.1-0.1-0.1-0.1-0.2-0.2
			c-0.1-0.1-0.2-0.2-0.3-0.2c-0.2-0.1-0.4-0.3-0.6-0.4c-1.1-0.6-2.4-1-3.7-1c-4.1,0-7.5,3.4-7.5,7.5c0,4.1,3.4,7.5,7.5,7.5h30
			c4.1,0,7.5-3.4,7.5-7.5C51.9,44.1,48.5,40.7,44.4,40.7z M44.4,55h-30c-3.8,0-6.8-3-6.8-6.8s3-6.8,6.8-6.8s6.8,3,6.8,6.8
			c0,0.7-0.1,1.3-0.3,2l-0.3,1h1h15.7h1.1l-0.3-1c-0.3-0.7-0.4-1.3-0.4-2c-0.1-3.8,2.9-6.8,6.7-6.8s6.8,3,6.8,6.8S48.2,55,44.4,55z"
			/>
		<path class="st1" d="M19.1,42.4c0.1,0.1,0.1,0.1,0.2,0.2c1.2,1,2,2.4,2.4,4c0,0.1,0.1,0.3,0.1,0.4c0,0.1,0,0.3,0.1,0.4
			c0,0.3,0.1,0.6,0.1,0.9c0,0.8-0.2,1.6-0.4,2.2h15.7c-0.2-0.7-0.4-1.5-0.4-2.2c0-2.8,1.5-5.2,3.8-6.5v-6.9l-0.5,0.5l-3.5-3.9v16.3
			c0,0.2-0.2,0.4-0.4,0.4s-0.4-0.2-0.4-0.4V30.6l-0.1-0.1l-3.6,3.9v13.3c0,0.2-0.2,0.4-0.4,0.4s-0.4-0.2-0.4-0.4V35.3l-0.1,0.1
			l-3.6-3.5v15.9c0,0.2-0.2,0.4-0.4,0.4s-0.4-0.2-0.4-0.4V31.1l-0.1,0l-3.9,3.8v12.8c0,0.2-0.2,0.4-0.4,0.4S22,47.9,22,47.7V35.1
			l-3.9-2.8v9.4c0,0,0,0,0,0c0.2,0.1,0.4,0.3,0.6,0.4C18.9,42.2,19,42.3,19.1,42.4z"/>
	</g>
	<g>
		<path class="st0" d="M39.6,14.1c-0.2,0-0.4,0.1-0.4,0.3L37.2,29l0.9-0.7l1.8-13.8C40,14.3,39.8,14.1,39.6,14.1z"/>
		<path class="st0" d="M44.1,14.7c-0.2,0-0.4,0.1-0.4,0.3l-2.3,17.7l0.7,1l2.4-18.5C44.4,14.8,44.3,14.7,44.1,14.7z"/>
		<path class="st0" d="M29.7,13.6c0,0.1-0.1,0.3-0.1,0.4C29.6,13.9,29.7,13.7,29.7,13.6z"/>
		<path class="st0" d="M30.4,12.9c-0.3,0-0.4,0.1-0.4,0.3L28,27.9l0.9-0.5l1.8-14.1C30.8,13,30.6,12.9,30.4,12.9z"/>
		<path class="st0" d="M35.1,13.5c-0.2,0-0.4,0.1-0.4,0.3l-2.3,17.2l0.7,0.9l2.4-18C35.5,13.7,35.3,13.5,35.1,13.5z"/>
		<path class="st0" d="M26.3,18.1c-0.1,0.1-0.2,0.1-0.3,0.2C26.1,18.3,26.2,18.2,26.3,18.1z"/>
		<path class="st0" d="M26.6,18c1.3-0.9,2.3-2.1,2.9-3.6C28.9,15.9,27.9,17.1,26.6,18z"/>
		<path class="st1" d="M21.6,18.5c3.8,0.5,7.1-2.1,7.6-5.9c0.1-0.6,0.1-1.3-0.1-2l-0.2-1l1,0.1l15.6,2l1,0.1l-0.4,1
			c-0.3,0.6-0.5,1.3-0.6,1.9c-0.5,3.8,2.1,7.1,5.9,7.6c3.8,0.5,7.1-2.1,7.6-5.9s-2.1-7.1-5.9-7.6L23.3,5c-3.8-0.5-7.1,2.1-7.6,5.9
			S17.8,18,21.6,18.5z"/>
		<path class="st2" d="M26.3,18.1c0.1,0,0.2-0.1,0.2-0.2c1.3-0.9,2.3-2.1,2.9-3.6c0-0.1,0.1-0.3,0.1-0.4c0-0.1,0.1-0.2,0.1-0.4
			c0.1-0.3,0.1-0.6,0.2-0.9c0.1-0.7,0-1.5-0.1-2.2l15.6,2c-0.3,0.7-0.5,1.4-0.6,2.1c-0.5,4.1,2.4,7.9,6.5,8.4
			c4.1,0.5,7.9-2.4,8.4-6.5c0.5-4.1-2.4-7.9-6.5-8.4L23.4,4.3c-4.1-0.5-7.9,2.4-8.4,6.5s2.4,7.9,6.5,8.4c1.3,0.2,2.7,0,3.8-0.5
			c0.2-0.1,0.4-0.2,0.7-0.3C26.1,18.3,26.2,18.2,26.3,18.1z M23.3,5l29.7,3.9c3.8,0.5,6.4,3.9,5.9,7.6s-3.9,6.4-7.6,5.9
			c-3.8-0.5-6.4-3.9-5.9-7.6c0.1-0.7,0.3-1.4,0.6-1.9l0.4-1l-1-0.1l-15.6-2l-1-0.1l0.2,1c0.2,0.7,0.2,1.4,0.1,2
			c-0.5,3.8-3.9,6.4-7.6,5.9s-6.4-3.9-5.9-7.6S19.6,4.5,23.3,5z"/>
		<path class="st2" d="M11.1,40.5c-0.1,0.6-0.1,1.1,0,1.6l0.3-2.8C11.3,39.8,11.2,40.1,11.1,40.5z"/>
		<path class="st1" d="M28,27.9l1.9-14.7c0-0.2,0.2-0.4,0.4-0.3c0.2,0,0.4,0.2,0.3,0.4l-1.8,14.1l0.5-0.2l3.1,3.9l2.3-17.2
			c0-0.2,0.3-0.4,0.4-0.3c0.2,0,0.4,0.2,0.3,0.4l-2.4,18l0,0l4.1-3l1.9-14.6c0-0.2,0.3-0.4,0.4-0.3c0.2,0,0.4,0.2,0.3,0.4l-1.8,13.8
			l0,0l3.1,4.4L43.6,15c0-0.2,0.3-0.4,0.4-0.3c0.2,0,0.4,0.2,0.3,0.4L42,33.7l0,0l4.5-3.8l1.1-8.3c-2-1.6-3.3-4.3-2.9-6.9
			c0.1-0.8,0.3-1.6,0.7-2.1l-15.6-2c0.1,0.7,0.2,1.5,0.1,2.2c0,0.3-0.1,0.6-0.2,0.9c0,0.1-0.1,0.3-0.1,0.4c0,0.1-0.1,0.3-0.1,0.4
			c-0.6,1.5-1.6,2.8-2.9,3.6c-0.1,0.1-0.2,0.1-0.2,0.2c-0.1,0.1-0.2,0.1-0.3,0.2c-0.2,0.1-0.4,0.2-0.7,0.3c0,0,0,0,0,0l-1.4,10.9
			l0.4,0.3L28,27.9z"/>
	</g>
</g>
</svg>
