<svg xmlns="http://www.w3.org/2000/svg" width="35" height="35" viewBox="0 0 35 35">
  <g id="greco_logo" data-name="greco logo" transform="translate(-7.5 -7.5)">
    <g id="Grupo_1" data-name="Grupo 1" transform="translate(7.5 7.5)">
      <path id="Trazado_1" data-name="Trazado 1" d="M36.606,22.1c-3.018,0-5.494-3.2-5.494-7.1a10.628,10.628,0,0,1,.232-2.2l.077-.4H18.578l.155.4a9.946,9.946,0,0,1,.232,2.2c0,3.9-2.476,7.1-5.494,7.1S7.9,18.9,7.9,15s2.476-7.1,5.494-7.1H36.606c3.018,0,5.494,3.2,5.494,7.1S39.624,22.1,36.606,22.1Z" transform="translate(-7.5 -7.5)" fill="#868686"/>
      <path id="Trazado_2" data-name="Trazado 2" d="M36.667,8.2c2.956,0,5.289,3,5.289,6.8s-2.333,6.8-5.289,6.8-5.289-3-5.289-6.8a8.161,8.161,0,0,1,.233-2l.233-1H18.078l.233,1a6.371,6.371,0,0,1,.311,2c0,3.8-2.333,6.8-5.289,6.8s-5.289-3-5.289-6.8,2.333-6.8,5.289-6.8H36.667m0-.7H13.333C10.144,7.5,7.5,10.9,7.5,15s2.644,7.5,5.833,7.5,5.833-3.4,5.833-7.5a9.043,9.043,0,0,0-.311-2.2H31.067a10.576,10.576,0,0,0-.233,2.2c0,4.1,2.644,7.5,5.833,7.5S42.5,19.1,42.5,15s-2.644-7.5-5.833-7.5Z" transform="translate(-7.5 -7.5)" fill="#fff"/>
    </g>
    <g id="Grupo_2" data-name="Grupo 2" transform="translate(7.5 27.5)">
      <path id="Trazado_3" data-name="Trazado 3" d="M13.39,52.1c-3.016,0-5.49-3.2-5.49-7.1s2.474-7.1,5.49-7.1,5.49,3.2,5.49,7.1a10.635,10.635,0,0,1-.232,2.2l-.155.4H31.407l-.155-.4A9.952,9.952,0,0,1,31.02,45c0-3.9,2.474-7.1,5.49-7.1S42,41.1,42,45s-2.474,7.1-5.49,7.1Z" transform="translate(-7.5 -37.5)" fill="#868686"/>
      <path id="Trazado_4" data-name="Trazado 4" d="M36.667,38.2c2.956,0,5.289,3,5.289,6.8s-2.333,6.8-5.289,6.8H13.333c-2.956,0-5.289-3-5.289-6.8s2.333-6.8,5.289-6.8,5.289,3,5.289,6.8a8.776,8.776,0,0,1-.233,2l-.233,1H32l-.233-1a5.965,5.965,0,0,1-.311-2c-.078-3.8,2.256-6.8,5.211-6.8m0-.7c-3.189,0-5.833,3.4-5.833,7.5a9.043,9.043,0,0,0,.311,2.2H18.856a10.713,10.713,0,0,0,.311-2.2c0-4.1-2.644-7.5-5.833-7.5S7.5,40.9,7.5,45s2.644,7.5,5.833,7.5H36.667c3.189,0,5.833-3.4,5.833-7.5s-2.644-7.5-5.833-7.5Z" transform="translate(-7.5 -37.5)" fill="#fff"/>
    </g>
    <g id="Grupo_3" data-name="Grupo 3" transform="translate(13.722 12.8)">
      <path id="Trazado_5" data-name="Trazado 5" d="M22.5,35.64a3.815,3.815,0,0,1-.4,1.56H37.8a4.5,4.5,0,0,1-.4-1.56c0-1.986,1.5-3.688,3.8-4.61V18.971c-2.2-.922-3.8-2.7-3.8-4.61a2.714,2.714,0,0,1,.4-1.56H22.1a4.5,4.5,0,0,1,.4,1.56c0,1.986-1.5,3.688-3.8,4.61V31.029C21,31.951,22.5,33.653,22.5,35.64ZM36.4,14.715c0-.142.2-.284.4-.284s.4.071.4.284v20.57c0,.142-.2.284-.4.284s-.4-.142-.4-.284Zm-4.5,0c0-.142.2-.284.4-.284s.4.071.4.284v20.57c0,.142-.2.284-.4.284s-.4-.142-.4-.284Zm-4.5,0c0-.142.2-.284.4-.284s.4.071.4.284v20.57c0,.142-.2.284-.4.284s-.4-.142-.4-.284Zm-4.8,0c0-.142.1-.284.4-.284.2,0,.4.071.4.284v20.57c0,.142-.2.284-.4.284s-.4-.142-.4-.284Z" transform="translate(-18.7 -12.8)" fill="#868686"/>
    </g>
  </g>
</svg>
