<svg xmlns="http://www.w3.org/2000/svg" xmlns:xlink="http://www.w3.org/1999/xlink" width="23.6" height="21.132" viewBox="0 0 23.6 21.132">
  <defs>
    <clipPath id="clip-path">
      <rect id="Rectángulo_3" data-name="Rectángulo 3" width="23.6" height="21.132"/>
    </clipPath>
  </defs>
  <g id="github_logo" data-name="github logo" transform="translate(0 0)">
    <g id="Grupo_4" data-name="Grupo 4" transform="translate(0 0)" clip-path="url(#clip-path)">
      <path id="Trazado_6" data-name="Trazado 6" d="M11.8,0C5.284,0,0,4.85,0,10.834A10.964,10.964,0,0,0,8.07,21.114c.59.1.806-.235.806-.523,0-.257-.01-.938-.016-1.842C5.578,19.4,4.885,17.3,4.885,17.3a2.947,2.947,0,0,0-1.31-1.584c-1.071-.672.081-.659.081-.659A2.468,2.468,0,0,1,5.463,16.17a2.645,2.645,0,0,0,3.434.9,2.247,2.247,0,0,1,.749-1.448c-2.62-.273-5.375-1.2-5.375-5.354A4.005,4.005,0,0,1,5.487,7.36,3.6,3.6,0,0,1,5.6,4.493S6.593,4.2,8.847,5.6a12.133,12.133,0,0,1,5.908,0C17.008,4.2,18,4.493,18,4.493a3.594,3.594,0,0,1,.117,2.867,4,4,0,0,1,1.213,2.907c0,4.162-2.759,5.078-5.388,5.346a2.477,2.477,0,0,1,.8,2.006c0,1.448-.014,2.616-.014,2.971,0,.29.212.627.811.521A10.965,10.965,0,0,0,23.6,10.834C23.6,4.85,18.317,0,11.8,0" transform="translate(0 0)" fill-rule="evenodd"/>
    </g>
  </g>
</svg>
