<svg id="Capa_1" data-name="Capa 1" xmlns="http://www.w3.org/2000/svg" viewBox="0 0 60 60"><defs><style>.cls-1{fill:#333;}.cls-2{fill:#fff;}</style></defs><path class="cls-1" d="M50,19.5A9.49,9.49,0,0,1,40.94,7.15l.2-.65H18.86l.2.65A9.5,9.5,0,1,1,10,.5H50a9.5,9.5,0,0,1,0,19Z"/><path class="cls-2" d="M50,1a9,9,0,1,1-9,9,9.11,9.11,0,0,1,.41-2.7L41.82,6H18.18l.41,1.3A9.11,9.11,0,0,1,19,10a9,9,0,1,1-9-9H50m0-1H10a10,10,0,1,0,9.54,7H40.46A10,10,0,1,0,50,0Z"/><path class="cls-1" d="M10,59.5a9.51,9.51,0,1,1,9.06-6.65l-.2.65H41.14l-.2-.65A9.5,9.5,0,1,1,50,59.5Z"/><path class="cls-2" d="M50,41a9,9,0,0,1,0,18H10a9,9,0,1,1,9-9,9.11,9.11,0,0,1-.41,2.7L18.18,54H41.82l-.41-1.3A9.11,9.11,0,0,1,41,50a9,9,0,0,1,9-9m0-1a10,10,0,0,0-9.54,13H19.54A10,10,0,1,0,10,60H50a10,10,0,0,0,0-20Z"/><path class="cls-1" d="M20,50a9.91,9.91,0,0,1-.46,3H40.46A10,10,0,0,1,45,41.35V18.65A10,10,0,0,1,40.46,7H19.54A10,10,0,0,1,15,18.65v22.7A10,10,0,0,1,20,50ZM38.54,10.64a.5.5,0,0,1,.5-.5.51.51,0,0,1,.5.5V49.36a.51.51,0,0,1-.5.5.5.5,0,0,1-.5-.5Zm-6,0a.5.5,0,0,1,1,0V49.36a.5.5,0,0,1-1,0Zm-6,0a.5.5,0,0,1,.5-.5.51.51,0,0,1,.5.5V49.36a.51.51,0,0,1-.5.5.5.5,0,0,1-.5-.5Zm-6.44,0a.5.5,0,0,1,.5-.5.51.51,0,0,1,.5.5V49.36a.51.51,0,0,1-.5.5.5.5,0,0,1-.5-.5Z"/></svg>